<svg width="16" height="16" viewBox="0 0 16 16" fill="none" xmlns="http://www.w3.org/2000/svg">
<path d="M15.6939 0.305084C15.2871 -0.101695 14.6313 -0.101695 14.2245 0.305084L7.24282 7.28675C6.91906 7.61051 6.91906 8.13351 7.24282 8.45727L14.2245 15.4389C14.6313 15.8457 15.2871 15.8457 15.6939 15.4389C16.1006 15.0322 16.1006 14.3763 15.6939 13.9695L9.60048 7.87616L15.7022 1.77447C16.1006 1.36769 16.1006 0.711864 15.6939 0.305084Z" fill="#A3ABB1"/>
<path d="M0.30613 15.4389C0.71291 15.8457 1.36874 15.8457 1.77552 15.4389L8.75718 8.45727C9.08094 8.13351 9.08094 7.61051 8.75718 7.28674L1.77552 0.305083C1.36874 -0.101697 0.712911 -0.101697 0.306132 0.305083C-0.100648 0.711862 -0.100648 1.36769 0.306132 1.77447L6.39952 7.86786L0.297829 13.9695C-0.100649 14.3763 -0.100649 15.0322 0.30613 15.4389Z" fill="#A3ABB1"/>
</svg>
