<svg width="31" height="31" viewBox="0 0 31 31" fill="none" xmlns="http://www.w3.org/2000/svg">
<path d="M28.7857 17.7143H17.7143V28.7857C17.7143 30.0036 16.7179 31 15.5 31C14.2821 31 13.2857 30.0036 13.2857 28.7857V17.7143H2.21429C0.996428 17.7143 0 16.7179 0 15.5C0 14.2821 0.996428 13.2857 2.21429 13.2857H13.2857V2.21429C13.2857 0.996428 14.2821 0 15.5 0C16.7179 0 17.7143 0.996428 17.7143 2.21429V13.2857H28.7857C30.0036 13.2857 31 14.2821 31 15.5C31 16.7179 30.0036 17.7143 28.7857 17.7143Z" fill="white"/>
</svg>
